# xmcd
#
# Track frame offsets:
#	150
#	973
#	20238
#	42683
#	61133
#	78750
#	79770
#	80798
#	81810
#	82613
#	102350
#	114385
#	129533
#	145595
#	162925
#	182340
#	196128
#	197143
#	198165
#	198965
#	216335
#	231285
#	252230
#	267978
#	283503
#	301108
#
# Disc length: 4223
#
# Revision: 3
# Processed by: cddbd v1.5.1PL0 Copyright (c) Steve Scherf et al.
# Submitted via: VisiTrax 2.9.5.181 - For more info visit www.synapsa.com
# Normalized: r2:DSETVAR1
#
DISCID=53107d1a
DTITLE=Various Artist - Top Hits USA T236
DYEAR=1994
DGENRE=
TTITLE0= N/A
TTITLE1=Oleta Adams and Brenda Russell - We Will Find A Way (Radio Version)
TTITLE2=Elton John - Circle of Life
TTITLE3=Lisa Stansfield - Make It Right
TTITLE4=The Williams Brothers - Friction
TTITLE5= N/A
TTITLE6= N/A
TTITLE7=Various Artist - N/A
TTITLE8=Various Artist - N/A
TTITLE9=Prince - Letitgo
TTITLE10=The Jesus and Mary Chain - Sometimes Always
TTITLE11=Salt 'N' Pepa - None Of Your (7" Perfecto Mix)
TTITLE12=Sam Phillips - Baby I Can't Please You
TTITLE13=Lafayette - Better Late Than Never (Radio Edit)
TTITLE14=This Picture - Heart Of Another Man
TTITLE15=Danielle Brisebois - What If God Fell From The Sky
TTITLE16=Various Artist - N/A
TTITLE17=Various Artist - N/A
TTITLE18=Various Artist - N/A
TTITLE19=Little Texas - Kick A Little
TTITLE20=Brooks And Dunn - She's Not The Cheatin' Kind
TTITLE21=Lari White - Now I Know
TTITLE22=Sammy Kershaw - Third Rate Romance
TTITLE23=Mark Collie - Hard Lovin' Woman
TTITLE24=Don Cox - In My Father's Eyes
TTITLE25=Bryan Austin - Is It Just Me (Edit Version)
EXTD=
EXTT0=
EXTT1=
EXTT2=
EXTT3=
EXTT4=
EXTT5=
EXTT6=
EXTT7=
EXTT8=
EXTT9=
EXTT10=
EXTT11=
EXTT12=
EXTT13=
EXTT14=
EXTT15=
EXTT16=
EXTT17=
EXTT18=
EXTT19=
EXTT20=
EXTT21=
EXTT22=
EXTT23=
EXTT24=
EXTT25=
PLAYORDER=
